<mxfile host="app.diagrams.net" modified="2024-02-06T06:38:01.922Z" agent="Mozilla/5.0 (Windows NT 10.0; Win64; x64) AppleWebKit/537.36 (KHTML, like Gecko) Chrome/121.0.0.0 Safari/537.36" etag="cGdj3UYp27smaM-LP8kA" version="23.1.1" type="github">
  <diagram name="Page-1" id="eZ13eS5RtiyZwgKGnTZA">
    <mxGraphModel dx="1434" dy="790" grid="1" gridSize="10" guides="1" tooltips="1" connect="1" arrows="1" fold="1" page="1" pageScale="1" pageWidth="850" pageHeight="1100" math="0" shadow="0">
      <root>
        <mxCell id="0" />
        <mxCell id="1" parent="0" />
        <mxCell id="bK-88mHhRqPUyR3KGV1U-3" value="" style="rounded=0;whiteSpace=wrap;html=1;" vertex="1" parent="1">
          <mxGeometry x="245" y="30" width="360" height="620" as="geometry" />
        </mxCell>
        <mxCell id="bK-88mHhRqPUyR3KGV1U-5" value="people" style="shape=umlActor;verticalLabelPosition=bottom;verticalAlign=top;html=1;outlineConnect=0;" vertex="1" parent="1">
          <mxGeometry x="120" y="245" width="80" height="150" as="geometry" />
        </mxCell>
        <mxCell id="bK-88mHhRqPUyR3KGV1U-6" value="pustakawan&lt;br&gt;" style="shape=umlActor;verticalLabelPosition=bottom;verticalAlign=top;html=1;outlineConnect=0;" vertex="1" parent="1">
          <mxGeometry x="670" y="240" width="80" height="150" as="geometry" />
        </mxCell>
        <mxCell id="bK-88mHhRqPUyR3KGV1U-12" value="" style="ellipse;whiteSpace=wrap;html=1;" vertex="1" parent="1">
          <mxGeometry x="345" y="50" width="160" height="80" as="geometry" />
        </mxCell>
        <mxCell id="bK-88mHhRqPUyR3KGV1U-15" value="masuk ke perpustakaan&lt;br&gt;" style="text;html=1;strokeColor=none;fillColor=none;align=center;verticalAlign=middle;whiteSpace=wrap;rounded=0;" vertex="1" parent="1">
          <mxGeometry x="395" y="75" width="60" height="30" as="geometry" />
        </mxCell>
        <mxCell id="bK-88mHhRqPUyR3KGV1U-16" value="" style="ellipse;whiteSpace=wrap;html=1;" vertex="1" parent="1">
          <mxGeometry x="345" y="170" width="160" height="80" as="geometry" />
        </mxCell>
        <mxCell id="bK-88mHhRqPUyR3KGV1U-17" value="isi daftar kunjungan" style="text;html=1;strokeColor=none;fillColor=none;align=center;verticalAlign=middle;whiteSpace=wrap;rounded=0;" vertex="1" parent="1">
          <mxGeometry x="395" y="195" width="60" height="30" as="geometry" />
        </mxCell>
        <mxCell id="bK-88mHhRqPUyR3KGV1U-18" value="riwayat kunjungan" style="ellipse;whiteSpace=wrap;html=1;" vertex="1" parent="1">
          <mxGeometry x="345" y="290" width="160" height="80" as="geometry" />
        </mxCell>
        <mxCell id="bK-88mHhRqPUyR3KGV1U-20" value="pencarian buku" style="ellipse;whiteSpace=wrap;html=1;" vertex="1" parent="1">
          <mxGeometry x="345" y="420" width="160" height="80" as="geometry" />
        </mxCell>
        <mxCell id="bK-88mHhRqPUyR3KGV1U-22" value="" style="endArrow=classic;html=1;rounded=0;entryX=0;entryY=0.5;entryDx=0;entryDy=0;" edge="1" parent="1" target="bK-88mHhRqPUyR3KGV1U-12">
          <mxGeometry width="50" height="50" relative="1" as="geometry">
            <mxPoint x="210" y="280" as="sourcePoint" />
            <mxPoint x="310" y="290" as="targetPoint" />
            <Array as="points">
              <mxPoint x="220" y="140" />
            </Array>
          </mxGeometry>
        </mxCell>
        <mxCell id="bK-88mHhRqPUyR3KGV1U-24" value="selesai" style="ellipse;whiteSpace=wrap;html=1;" vertex="1" parent="1">
          <mxGeometry x="345" y="530" width="160" height="80" as="geometry" />
        </mxCell>
        <mxCell id="bK-88mHhRqPUyR3KGV1U-25" value="" style="endArrow=classic;html=1;rounded=0;entryX=0;entryY=0.5;entryDx=0;entryDy=0;" edge="1" parent="1" target="bK-88mHhRqPUyR3KGV1U-16">
          <mxGeometry width="50" height="50" relative="1" as="geometry">
            <mxPoint x="210" y="310" as="sourcePoint" />
            <mxPoint x="320" y="270" as="targetPoint" />
            <Array as="points">
              <mxPoint x="260" y="230" />
            </Array>
          </mxGeometry>
        </mxCell>
        <mxCell id="bK-88mHhRqPUyR3KGV1U-26" value="" style="endArrow=classic;html=1;rounded=0;" edge="1" parent="1" target="bK-88mHhRqPUyR3KGV1U-18">
          <mxGeometry width="50" height="50" relative="1" as="geometry">
            <mxPoint x="210" y="330" as="sourcePoint" />
            <mxPoint x="310" y="330" as="targetPoint" />
          </mxGeometry>
        </mxCell>
        <mxCell id="bK-88mHhRqPUyR3KGV1U-27" value="" style="endArrow=classic;html=1;rounded=0;entryX=1;entryY=0.5;entryDx=0;entryDy=0;" edge="1" parent="1" source="bK-88mHhRqPUyR3KGV1U-6" target="bK-88mHhRqPUyR3KGV1U-18">
          <mxGeometry width="50" height="50" relative="1" as="geometry">
            <mxPoint x="530" y="370" as="sourcePoint" />
            <mxPoint x="580" y="320" as="targetPoint" />
            <Array as="points">
              <mxPoint x="590" y="300" />
            </Array>
          </mxGeometry>
        </mxCell>
        <mxCell id="bK-88mHhRqPUyR3KGV1U-28" value="" style="endArrow=classic;html=1;rounded=0;entryX=0;entryY=0.5;entryDx=0;entryDy=0;" edge="1" parent="1" target="bK-88mHhRqPUyR3KGV1U-20">
          <mxGeometry width="50" height="50" relative="1" as="geometry">
            <mxPoint x="200" y="340" as="sourcePoint" />
            <mxPoint x="355" y="340" as="targetPoint" />
          </mxGeometry>
        </mxCell>
        <mxCell id="bK-88mHhRqPUyR3KGV1U-29" value="" style="endArrow=classic;html=1;rounded=0;entryX=0.988;entryY=0.413;entryDx=0;entryDy=0;entryPerimeter=0;" edge="1" parent="1" target="bK-88mHhRqPUyR3KGV1U-24">
          <mxGeometry width="50" height="50" relative="1" as="geometry">
            <mxPoint x="680" y="320" as="sourcePoint" />
            <mxPoint x="515" y="340" as="targetPoint" />
            <Array as="points">
              <mxPoint x="610" y="400" />
            </Array>
          </mxGeometry>
        </mxCell>
        <mxCell id="bK-88mHhRqPUyR3KGV1U-30" value="" style="endArrow=classic;html=1;rounded=0;entryX=0.063;entryY=0.713;entryDx=0;entryDy=0;entryPerimeter=0;" edge="1" parent="1" source="bK-88mHhRqPUyR3KGV1U-5" target="bK-88mHhRqPUyR3KGV1U-24">
          <mxGeometry width="50" height="50" relative="1" as="geometry">
            <mxPoint x="210" y="360" as="sourcePoint" />
            <mxPoint x="355" y="470" as="targetPoint" />
          </mxGeometry>
        </mxCell>
      </root>
    </mxGraphModel>
  </diagram>
</mxfile>
